<svg width="369" height="920" viewBox="0 0 369 920" fill="none" xmlns="http://www.w3.org/2000/svg">
<g filter="url(#filter0_f_49_30)">
<path d="M245.614 33.852C240.819 20.5875 128.154 -1.11796 94.5946 -18L64.231 25.411C64.231 38.8764 60.2358 72.4395 44.2548 98.9684C24.2785 132.13 25.877 179.761 25.877 264.774C25.877 349.787 1.90576 413.698 1.90576 477.005C1.90576 540.313 10.6952 590.959 1.90576 657.884C-6.8837 724.81 17.0876 756.765 25.877 811.632C34.6665 866.498 57.0397 867.101 64.231 880.366C71.4224 893.63 73.0205 891.821 105.781 899.056C138.542 906.292 132.949 891.821 165.709 880.366C191.918 871.201 176.63 867.704 165.709 867.101C184.354 863.082 260.496 848.4 270.384 786.911C277.268 744.103 274.379 764.603 287.963 719.383C301.547 674.164 287.963 639.797 287.963 512.578C287.963 385.36 291.958 422.139 287.963 357.022C283.968 291.906 279.173 217.746 270.384 159.261C261.594 100.777 250.408 47.1164 245.614 33.852Z" fill="#161616"/>
</g>
<defs>
<filter id="filter0_f_49_30" x="-74.5" y="-92.5" width="443" height="1068" filterUnits="userSpaceOnUse" color-interpolation-filters="sRGB">
<feFlood flood-opacity="0" result="BackgroundImageFix"/>
<feBlend mode="normal" in="SourceGraphic" in2="BackgroundImageFix" result="shape"/>
<feGaussianBlur stdDeviation="37.25" result="effect1_foregroundBlur_49_30"/>
</filter>
</defs>
</svg>
