<svg width="126" height="108" viewBox="0 0 126 108" fill="none" xmlns="http://www.w3.org/2000/svg">
<g filter="url(#filter0_i_52_55)">
<path d="M0.47168 106.492V-0.000732422H44.8784C52.8515 -0.000732422 59.5246 1.1259 64.8978 3.37917C70.3056 5.63243 74.3615 8.78701 77.0654 12.8429C79.804 16.8988 81.1733 21.596 81.1733 26.9345C81.1733 30.9904 80.324 34.6129 78.6254 37.8022C76.9268 40.9567 74.5868 43.574 71.6056 45.6539C68.6243 47.7339 65.1751 49.1898 61.2579 50.0218V51.0618C65.5564 51.2698 69.5257 52.4311 73.1655 54.5457C76.8401 56.6603 79.7867 59.6069 82.0053 63.3854C84.2239 67.1293 85.3332 71.5665 85.3332 76.697C85.3332 82.4169 83.8772 87.53 80.9653 92.0366C78.0534 96.5084 73.8415 100.044 68.3297 102.644C62.8178 105.21 56.1274 106.492 48.2583 106.492H0.47168ZM26.2109 85.7448H42.1225C47.7036 85.7448 51.8115 84.6875 54.4461 82.5728C57.1154 80.4582 58.45 77.5117 58.45 73.7331C58.45 70.9945 57.8087 68.6373 56.526 66.6613C55.2434 64.6507 53.4235 63.1081 51.0662 62.0335C48.7089 60.9242 45.8837 60.3695 42.5904 60.3695H26.2109V85.7448ZM26.2109 43.782H40.4585C43.2664 43.782 45.7623 43.314 47.9463 42.378C50.1302 41.4421 51.8288 40.0901 53.0421 38.3221C54.2901 36.5542 54.9141 34.4223 54.9141 31.9263C54.9141 28.3558 53.6488 25.5479 51.1182 23.5026C48.5876 21.4573 45.173 20.4347 40.8745 20.4347H26.2109V43.782Z" fill="#365FAC"/>
<path d="M112.008 108C108.265 108 105.058 106.683 102.389 104.048C99.7541 101.414 98.4541 98.2244 98.4888 94.4805C98.4541 90.8059 99.7541 87.6687 102.389 85.0688C105.058 82.4342 108.265 81.1169 112.008 81.1169C115.544 81.1169 118.664 82.4342 121.368 85.0688C124.107 87.6687 125.493 90.8059 125.528 94.4805C125.493 96.9764 124.835 99.247 123.552 101.292C122.304 103.338 120.657 104.967 118.612 106.18C116.602 107.393 114.4 108 112.008 108Z" fill="#365FAC"/>
</g>
<defs>
<filter id="filter0_i_52_55" x="0.47168" y="-0.000732422" width="136.425" height="119.369" filterUnits="userSpaceOnUse" color-interpolation-filters="sRGB">
<feFlood flood-opacity="0" result="BackgroundImageFix"/>
<feBlend mode="normal" in="SourceGraphic" in2="BackgroundImageFix" result="shape"/>
<feColorMatrix in="SourceAlpha" type="matrix" values="0 0 0 0 0 0 0 0 0 0 0 0 0 0 0 0 0 0 127 0" result="hardAlpha"/>
<feOffset dx="11.3688" dy="11.3688"/>
<feGaussianBlur stdDeviation="5.68438"/>
<feComposite in2="hardAlpha" operator="arithmetic" k2="-1" k3="1"/>
<feColorMatrix type="matrix" values="0 0 0 0 0.262222 0 0 0 0 0.598741 0 0 0 0 0.983333 0 0 0 0.25 0"/>
<feBlend mode="normal" in2="shape" result="effect1_innerShadow_52_55"/>
</filter>
</defs>
</svg>
